<svg xmlns="http://www.w3.org/2000/svg" viewBox="0 0 605.98 888.64">
  <defs>
    <style>
      .cls-1, .cls-9 {
        fill: none;
      }

      .cls-1, .cls-10, .cls-11, .cls-12, .cls-13, .cls-14, .cls-15, .cls-16, .cls-17, .cls-19, .cls-2, .cls-20, .cls-21, .cls-22, .cls-23, .cls-24, .cls-25, .cls-26, .cls-27, .cls-29, .cls-3, .cls-30, .cls-31, .cls-32, .cls-34, .cls-35, .cls-36, .cls-37, .cls-38, .cls-4, .cls-5, .cls-6, .cls-7, .cls-8, .cls-9 {
        stroke: #000;
        stroke-miterlimit: 10;
      }

      .cls-11, .cls-2 {
        fill: #8c6239;
      }

      .cls-3, .cls-8 {
        fill: #754c24;
      }

      .cls-10, .cls-4 {
        fill: #5b3b20;
      }

      .cls-12, .cls-15, .cls-28, .cls-29, .cls-5 {
        fill: #e6934f;
      }

      .cls-13, .cls-14, .cls-17, .cls-6, .cls-7 {
        fill: #b57e3b;
      }

      .cls-6 {
        stroke-width: 1.46px;
      }

      .cls-7 {
        stroke-width: 1.31px;
      }

      .cls-13 {
        stroke-width: 1.46px;
      }

      .cls-14 {
        stroke-width: 1.3px;
      }

      .cls-15 {
        stroke-width: 0.87px;
      }

      .cls-16, .cls-18, .cls-19, .cls-36 {
        fill: #fff;
      }

      .cls-19, .cls-20 {
        stroke-width: 1.3px;
      }

      .cls-20 {
        fill: #ccc;
      }

      .cls-21 {
        fill: #f7931e;
        stroke-width: 1.21px;
      }

      .cls-22 {
        fill: #5c3112;
      }

      .cls-23, .cls-25 {
        fill: #efd09c;
      }

      .cls-24 {
        fill: #b79b72;
      }

      .cls-24, .cls-25 {
        stroke-width: 1.08px;
      }

      .cls-26 {
        fill: #543720;
      }

      .cls-27, .cls-33 {
        fill: #472517;
      }

      .cls-29 {
        stroke-width: 0.76px;
      }

      .cls-30 {
        stroke-width: 0.68px;
      }

      .cls-32 {
        fill: #d25c42;
      }

      .cls-34 {
        fill: #d3864c;
      }

      .cls-35 {
        stroke-width: 0.65px;
      }

      .cls-36 {
        stroke-width: 0.21px;
      }

      .cls-37 {
        stroke-width: 0.59px;
      }

      .cls-38 {
        fill: #dd863f;
        stroke-width: 1.34px;
      }
    </style>
  </defs>
  <g id="Capa_2" data-name="Capa 2">
    <g id="piernaIZQ">
      <g>
        <path class="cls-1" d="M283.62,818.78v21.41c2.41.3,6,1.17,8.35,4,3,3.61,2.48,8.44,2.12,12.7a191.11,191.11,0,0,0-.35,25.77l-158.48-2.94c-2-4.31-6.85-16.3-2.11-27.77,6.72-16.28,30.58-26.17,56.65-18.4q1-11.26,1.94-22.54Z"/>
        <path class="cls-2" d="M283.62,840.19c1.37,4.6,2.59,11.45-.83,16.7-4.67,7.2-15.39,7.38-39.53,7.77l-44.53.72,4.3,15.31,90.71,2q-.3-6.93-.23-14.47c.07-6.83.38-13.32.87-19.41a12,12,0,0,0-4.53-6.47A11.79,11.79,0,0,0,283.62,840.19Z"/>
        <g>
          <path class="cls-3" d="M293.52,876.43a8.53,8.53,0,0,1,1.27,1.29c3,3.72,2.11,8.82,1.77,10.41L131.15,885c1-9.18,1.46-11.6,1.69-11.59a21.78,21.78,0,0,0,.92,3.83,11.54,11.54,0,0,0,1.5,2.53l158.48,2.94Z"/>
          <polygon class="cls-4" points="173.5 830.88 187.48 880.69 203.03 880.69 189.8 833.55 173.5 830.88"/>
          <path class="cls-2" d="M173.5,830.88a44.4,44.4,0,0,0-20.35,3.25c-4.6,1.92-14.41,6-19.35,16.38-6.5,13.61.51,27.4,1.46,29.21l52.22,1Z"/>
          <path class="cls-5" d="M191.74,811l-1.87,21.74,8.86,32.63q21.71,0,44.53-.72,13-.43,25.63-1.13a24.88,24.88,0,0,0,4.93-.91,17.68,17.68,0,0,0,6.29-2.82c4-3.14,4.63-8.21,4.86-10a18.64,18.64,0,0,0-1.35-9.57V818.78Z"/>
          <path class="cls-6" d="M188.65,647.38q-1.36,36-3.43,73.15-2,35.46-4.48,69.9L288.5,796c2.69-16.86,5.05-34.66,6.92-53.35,2.41-24.17,3.72-47.09,4.25-68.59-6.09,0-14.78-.14-25.18-1.08-12.27-1.11-30.3-2.85-51.85-10.15A191.22,191.22,0,0,1,188.65,647.38Z"/>
          <rect class="cls-7" x="176.17" y="788.46" width="116.53" height="32.67" transform="translate(41.85 -11.03) rotate(2.96)"/>
        </g>
      </g>
    </g>
    <g id="piernaDER">
      <g>
        <path class="cls-8" d="M316.68,876.43a9.13,9.13,0,0,0-1.28,1.29c-3,3.72-2.11,8.82-1.76,10.41L479,885c-1-9.18-1.47-11.6-1.69-11.59s0,1.69-.93,3.83a10.81,10.81,0,0,1-1.5,2.53l-158.4,2.94Z"/>
        <path class="cls-9" d="M326.57,818.78v21.41c-2.4.3-6,1.17-8.34,4-3.05,3.61-2.48,8.44-2.12,12.7a192.8,192.8,0,0,1,.35,25.77l158.4-2.94c2-4.31,6.85-16.3,2.12-27.77-6.72-16.28-30.57-26.17-56.63-18.4q-1-11.26-1.93-22.54Z"/>
        <polygon class="cls-10" points="436.64 830.88 422.67 880.69 407.13 880.69 420.35 833.55 436.64 830.88"/>
        <path class="cls-11" d="M326.57,840.19c-1.37,4.6-2.58,11.45.83,16.7,4.67,7.2,15.38,7.38,39.51,7.77l44.51.72-4.29,15.31-90.67,2c.19-4.62.28-9.45.23-14.47-.07-6.83-.39-13.32-.87-19.41a12,12,0,0,1,4.53-6.47A11.79,11.79,0,0,1,326.57,840.19Z"/>
        <path class="cls-11" d="M436.64,830.88A44.34,44.34,0,0,1,457,834.13c4.6,1.92,14.41,6,19.35,16.38,6.49,13.61-.52,27.4-1.47,29.21l-52.19,1Z"/>
        <path class="cls-12" d="M418.42,811l1.86,21.74-8.86,32.63q-21.69,0-44.51-.72-13-.43-25.61-1.13a24.88,24.88,0,0,1-4.93-.91,17.68,17.68,0,0,1-6.29-2.82c-4-3.14-4.62-8.21-4.86-10a18.85,18.85,0,0,1,1.35-9.57V818.78Z"/>
        <path class="cls-13" d="M419.21,641.69q1.91,39.07,4.27,78.84,2.1,35.24,4.48,69.9L320.25,796c-2.69-16.86-5.05-34.66-6.91-53.35-2.42-24.17-3.73-47.09-4.25-68.59a193.22,193.22,0,0,0,25.16-1.08,188.84,188.84,0,0,0,51-12.74A180.31,180.31,0,0,0,419.21,641.69Z"/>
        <rect class="cls-14" x="315.5" y="788.49" width="116.37" height="32.67" transform="translate(788.42 1589.28) rotate(177.04)"/>
      </g>
    </g>
    <g id="brazoDER">
      <g>
        <path class="cls-15" d="M382.06,374.46c37.28,3.9,64.05,15.63,80,24.29,50.12,27.16,77.29,69.29,96.79,99.52a386.22,386.22,0,0,1,25.65,46.51,44.58,44.58,0,0,1,14.32,14.82c7.24,12.43,9.07,30.37,3.26,33.56-2.12,1.16-4.72.06-4.85,0-7.6-3.36-3.55-21.1-10.24-23.47a4.27,4.27,0,0,0-4.06.53c-1.7,1.53-.83,5-.26,7.32,0,0,3.19,12.92,4.68,22,1.43,8.72.42,11.62-.77,13.5-.43.68-2.56,4-6,4.24s-5.87-2.8-6.59-3.65c-2.76-3.31-3-7-3.17-15.88-.22-10.72-.2-21.1-3.89-24.12a3.85,3.85,0,0,0-2.88-1.07c-1.85.28-2.81,2.51-3,3a107.83,107.83,0,0,1,4.36,20.35,109.66,109.66,0,0,1,.47,19.42c-1.32,5.76-6.5,8.59-10,7.41-2.36-.8-4-3.43-4.47-6.47-.42-7.19-1.19-15-2.48-23.18-.78-5.07-1.7-9.9-2.7-14.47a4.21,4.21,0,0,0-6.12,2.24,74.76,74.76,0,0,1,.35,39.41c-1.41,5.47-4.24,9.6-7.35,9.83-4.37.32-10-7-9.49-12.06a143.63,143.63,0,0,0,.52-21.29,146,146,0,0,0-1.54-15A27.59,27.59,0,0,0,519.28,571c-.71-1.27-7.4-12.83-16.46-12-.42,0-5.1.52-7.53,3.94-1.6,2.24-1.11,4.16-2.17,8.08a26.43,26.43,0,0,1-3.68,8,13.3,13.3,0,0,1-10.68,1.54c-6.25-1.9-8.29-7.83-8.47-8.38a56.37,56.37,0,0,1,19.15-45.49,139.85,139.85,0,0,0-27.1-51c-33-39.26-78-47.53-91.57-49.5a29.27,29.27,0,0,1,11.29-51.65Z"/>
        <path class="cls-16" d="M485.66,515.39l73.21-17.12A239.77,239.77,0,0,0,397.92,374.46c-25.6-5.41-45.41,10.29-46.18,24.32-.6,10.74,9.83,23,25.49,28.4,13.9,2.46,49,10.65,78.39,41A140.4,140.4,0,0,1,485.66,515.39Z"/>
        <path class="cls-16" d="M484.16,511.66l-4.85,2.75q2.43,5.6,4.85,11.19a271.08,271.08,0,0,1,85.27-19.77l-8.7-12.23a164.67,164.67,0,0,0-76.57,18.06Z"/>
      </g>
    </g>
    <g id="brazoIZQ">
      <g>
        <path class="cls-15" d="M223.93,374.46c-37.29,3.9-64.06,15.63-80,24.29C93.79,425.91,66.61,468,47.12,498.27a383.41,383.41,0,0,0-25.65,46.51A44.48,44.48,0,0,0,7.15,559.6C-.1,572-1.92,590,3.88,593.16c2.12,1.16,4.72.06,4.86,0,7.59-3.36,3.55-21.1,10.23-23.47a4.27,4.27,0,0,1,4.06.53c1.71,1.53.83,5,.26,7.32,0,0-3.18,12.92-4.67,22-1.44,8.72-.43,11.62.76,13.5.43.68,2.56,4,6,4.24s5.88-2.8,6.59-3.65c2.76-3.31,3-7,3.18-15.88.22-10.72.2-21.1,3.88-24.12a3.85,3.85,0,0,1,2.89-1.07c1.84.28,2.81,2.51,3,3a108.09,108.09,0,0,0-4.82,39.77c1.32,5.76,6.49,8.59,10,7.41,2.35-.8,4-3.43,4.47-6.47C55,609,55.75,601.24,57,593c.79-5.07,1.71-9.9,2.71-14.47a4.2,4.2,0,0,1,6.11,2.24,74.76,74.76,0,0,0-.35,39.41c1.42,5.47,4.24,9.6,7.35,9.83,4.38.32,10-7,9.49-12.06a143.69,143.69,0,0,1,1-36.25A27.55,27.55,0,0,1,86.7,571c.72-1.27,7.4-12.83,16.46-12,.43,0,5.11.52,7.54,3.94,1.59,2.24,1.11,4.16,2.16,8.08a26.68,26.68,0,0,0,3.68,8,13.33,13.33,0,0,0,10.69,1.54c6.24-1.9,8.28-7.83,8.46-8.38a56.37,56.37,0,0,0-19.15-45.49,139.85,139.85,0,0,1,27.1-51c33-39.26,78-47.53,91.57-49.5a29.27,29.27,0,0,0-11.28-51.65Z"/>
        <path class="cls-16" d="M120.32,515.39l-73.2-17.12a239.72,239.72,0,0,1,161-123.81c15.56-8.14,34.62-.74,40.61,14.43s-2.94,33.67-19.93,38.29c-13.9,2.46-49,10.65-78.38,41A140.46,140.46,0,0,0,120.32,515.39Z"/>
        <path class="cls-16" d="M121.82,511.66l4.85,2.75q-2.42,5.6-4.85,11.19A270.44,270.44,0,0,0,75.5,511.25a271.85,271.85,0,0,0-38.95-5.42l8.71-12.23a164.67,164.67,0,0,1,76.56,18.06Z"/>
      </g>
    </g>
    <g id="pantalon">
      <path class="cls-17" d="M164.46,620.42l275.71-2.82a116.14,116.14,0,0,1-28.53,29.31c-18.09,12.91-35.12,17-52.31,21.08a223.34,223.34,0,0,1-57,6,260.06,260.06,0,0,1-64.69-7.94c-20.13-5.12-37.52-9.75-54.5-24.28A98.91,98.91,0,0,1,164.46,620.42Z"/>
    </g>
    <g id="torso">
      <g>
        <g>
          <path class="cls-18" d="M198.64,390.51a254.68,254.68,0,0,0-29.15,45.88c-11,22.32-30.15,64.75-25.15,118.77,1.59,17.16,8.54,68.2,46.89,93.41C205.6,658,221.57,662,238.65,666.23a263.67,263.67,0,0,0,70.56,7.69,195.48,195.48,0,0,0,74.29-13.74c18.17-7.27,36.63-14.92,50.77-33.53,8-10.57,13.29-22.87,17.23-43.78,14.5-77-12-140.66-14.91-147.18a242.75,242.75,0,0,0-33-53.89,630.78,630.78,0,0,1-101.71,12.74A629.14,629.14,0,0,1,198.64,390.51Z"/>
          <path class="cls-1" d="M198.64,390.51a254.68,254.68,0,0,0-29.15,45.88c-11,22.32-30.15,64.75-25.15,118.77,1.59,17.16,8.54,68.2,46.89,93.41C205.6,658,221.57,662,238.65,666.23a263.67,263.67,0,0,0,70.56,7.69,195.48,195.48,0,0,0,74.29-13.74c18.17-7.27,36.63-14.92,50.77-33.53,8-10.57,13.29-22.87,17.23-43.78,14.5-77-12-140.66-14.91-147.18a242.75,242.75,0,0,0-33-53.89,630.78,630.78,0,0,1-101.71,12.74A629.14,629.14,0,0,1,198.64,390.51Z"/>
        </g>
        <path class="cls-5" d="M331,394.07l-32.94,51.29L264.2,395Z"/>
        <path class="cls-19" d="M244.72,394.41q-4.93,17-9.86,33.94a5.07,5.07,0,0,0,6.74,6.14l24.25-9.6,31.76,25.41"/>
        <path class="cls-19" d="M352.45,391.77q4.92,17,9.85,34a5.07,5.07,0,0,1-6.74,6.13l-24.25-9.6c-10.59,8.47-20.28,25.41-30.87,33.88"/>
        <line class="cls-16" x1="298.09" y1="445.36" x2="299.67" y2="674.01"/>
        <circle class="cls-20" cx="312.09" cy="475.17" r="6"/>
        <circle class="cls-20" cx="312.09" cy="523.88" r="6"/>
        <circle class="cls-20" cx="312.09" cy="572.58" r="6"/>
        <path class="cls-17" d="M157.64,607.64l290.1-1.49a120.61,120.61,0,0,1-36.1,40.76c-18.13,12.76-35.09,17-52.31,21.08a223.34,223.34,0,0,1-57,6,260.06,260.06,0,0,1-64.69-7.94c-21.45-5.46-38-10.13-54.5-24.28A100,100,0,0,1,157.64,607.64Z"/>
        <rect class="cls-21" x="275.12" y="599.94" width="49.08" height="40.95" rx="12"/>
        <rect class="cls-22" x="283.62" y="607" width="32.09" height="26.83"/>
      </g>
    </g>
    <g id="cinturon">
      <g>
        <path class="cls-22" d="M155.22,602c42.64,3.37,88.34,5.49,136.75,5.73,55.22.27,107-2,154.83-5.73a78.35,78.35,0,0,1-14.68,27.35c-42.75,3.18-88.76,5-137.68,4.85-43.73-.17-85.1-2-123.83-4.85A113,113,0,0,1,155.22,602Z"/>
        <rect class="cls-21" x="275.12" y="599.94" width="49.08" height="40.95" rx="12"/>
        <rect class="cls-22" x="283.62" y="607" width="32.09" height="26.83"/>
      </g>
    </g>
    <g id="sombrero">
      <g>
        <path class="cls-23" d="M203.42,24.28l-22.27,81.55H425.38l-3.82-70.38A23.62,23.62,0,0,0,399.8,13.18L237.06.6A32.29,32.29,0,0,0,203.42,24.28Z"/>
        <path class="cls-24" d="M553.46,152.42c12.35,35.24-42.52,76.63-47.25,80.11-41.94,30.94-89.85,31.29-182.88,30.72-115.42-.71-181.48-2-224.39-44.47-4.79-4.75-43-42.56-29.49-74.12,20.4-47.74,143.88-45.89,239.14-44.47C402.4,101.59,536.34,103.58,553.46,152.42Z"/>
        <path class="cls-25" d="M69.45,144.66A60.45,60.45,0,0,1,82,129.15c11.52-10.17,24.64-14.21,35.18-17,37.42-9.74,67-10.37,67-10.37,66.88-1.35,100.31-2,111.24-1.82,0,0,129,2.39,203,16.17,8.62,1.61,25.64,5.12,39.93,17.19A61.79,61.79,0,0,1,555.26,156c-.38-8.29-2.37-20.82-11.36-32.47-9.71-12.6-30-27.32-191.09-34.59-8.2-.37-57.07-2.49-120.11-1.17-17.38.36-35.15,1.81-70.7,4.7-44.52,3.63-58.85,6.06-71.25,15.53C76.08,119.15,71.28,134.74,69.45,144.66Z"/>
        <path class="cls-26" d="M194.8,55.85c30.83-1.21,63.77-1.41,98.58-.13A1299.4,1299.4,0,0,1,423.28,67Q424,80.15,424.7,93.3c-37.06-3.1-76.69-5.19-118.63-5.77-42.65-.58-83,.46-120.64,2.61Q190.13,73,194.8,55.85Z"/>
      </g>
    </g>
    <g id="cara">
      <g>
        <path class="cls-27" d="M431.74,319.72c4.93,6.37,8.74,7,10.7,7,8.87-.25,17.57-16.53,21.09-41.35a32.39,32.39,0,0,0-31.79,19.77Z"/>
        <path class="cls-5" d="M170.56,219.48a20.64,20.64,0,0,0-36-2.82c-7.67,16.79-5.58,28.79-4.24,33.88,1.89,7.11,5.5,12.76,12.71,24,4.74,7.39,9.09,13.22,12.19,17.17h15.34Z"/>
        <path class="cls-27" d="M162.78,225.08c-2.8-6.34-19.65-46,0-73.36,1.86-2.58,6.91-9.05,21.89-17.47,13.58-7.64,39.72-19.37,79-19.5Z"/>
        <g>
          <path class="cls-28" d="M423.07,368.33c-30,35.07-78.17,35.42-122.63,37.5-39,1.83-103.72,4.87-135.33-37.83-14.31-19.34-23.09-49.75-18.55-77.22,2.25-13.64,6.66-19.73,10.52-32.32.12-.39,2.56-10.06,4.3-19.92,8.65-49.07-4.49-81.36,15.85-99.76,2.49-2.25,5.12-3.78,10.39-6.83,15.5-9,30.14-12.42,43.64-14.59a351.23,351.23,0,0,1,74.12-3.76c64,5,96,7.37,115.06,24.7,33.58,30.61,30.47,82.61,27.3,135.77C445.18,316.82,443.53,344.39,423.07,368.33Z"/>
          <path class="cls-1" d="M423.07,368.33c-30,35.07-78.17,35.42-122.63,37.5-39,1.83-103.72,4.87-135.33-37.83-14.31-19.34-23.09-49.75-18.55-77.22,2.25-13.64,6.66-19.73,10.52-32.32.12-.39,2.56-10.06,4.3-19.92,8.65-49.07-4.49-81.36,15.85-99.76,2.49-2.25,5.12-3.78,10.39-6.83,15.5-9,30.14-12.42,43.64-14.59a351.23,351.23,0,0,1,74.12-3.76c64,5,96,7.37,115.06,24.7,33.58,30.61,30.47,82.61,27.3,135.77C445.18,316.82,443.53,344.39,423.07,368.33Z"/>
        </g>
        <path class="cls-5" d="M442.25,231.47q2.22-6,4.46-12a20.64,20.64,0,0,1,36-2.82,69.67,69.67,0,0,1,4.23,33.88c-2.46,19.19-12.38,31.1-18.42,38.35-5.16,6.19-10,11.23-15.18,10.36-5.89-1-10.64-9.55-11.72-21.36"/>
        <path class="cls-27" d="M425.78,134.58c7.09,2.66,12.35,5,15.42,6.34,5.38,2.39,10,4.64,13.83,6.56a82.81,82.81,0,0,1,14.82,21.88,84.57,84.57,0,0,1,7.44,42,20.19,20.19,0,0,0-3.55-1.91c-.56-.23-11.21-4.44-20.22,1.82a20.36,20.36,0,0,0-6.81,8.24c-8.52,25.05-13.47,28.18-16,27.88-6.09-.71-10.54-22.13-8.3-40.41a73.88,73.88,0,0,1,3-13.59A71.59,71.59,0,0,1,405.85,172c-10.88-18.52-13.62-43.26-7.64-46.06,1-.45,1.52,0,6.64,1.83C416.15,131.86,414.54,130.37,425.78,134.58Z"/>
        <path class="cls-29" d="M474.49,248.38c3.73-8.39,1.55-16.59-3.21-19.19-3.64-2-8.22-.4-8.56-.27a12.1,12.1,0,0,0-7,7A22.49,22.49,0,0,0,453.62,252c.41-.28,5.35-3.61,8.92-1.81,3.75,1.89,5.6,9.24,1.27,16.56"/>
      </g>
    </g>
    <g id="boca_3" data-name="boca 3">
      <ellipse class="cls-30" cx="281.79" cy="337.23" rx="27" ry="17.1"/>
    </g>
    <g id="boca_2" data-name="boca 2">
      <g>
        <path class="cls-31" d="M234.88,325.14a23.35,23.35,0,0,0,3.71,11c8.06,12,26.31,11.72,47.82,11.38,22.35-.34,37.19-.79,44.65-11.55,3.77-5.45,4.38-11.69,4.23-16.26Z"/>
        <path class="cls-18" d="M238.79,324.42q2.6,8,5.18,16A281.12,281.12,0,0,0,326.32,339l6.12-16.47Z"/>
      </g>
    </g>
    <g id="boca">
      <g>
        <path class="cls-31" d="M234.88,325.14a40.06,40.06,0,0,0,11.9,27.14C261.34,366.89,282,367,285.11,367c4,0,20.47-.51,34.25-11.63a42.46,42.46,0,0,0,15.93-35.66Z"/>
        <path class="cls-18" d="M238.79,324.42q2.6,8,5.18,16A281.12,281.12,0,0,0,326.32,339l6.12-16.47Z"/>
        <path class="cls-32" d="M257.64,360.3a143.07,143.07,0,0,1,19.86-6.7c14.18-3.65,27.6-6.91,36.53,0a18.31,18.31,0,0,1,3.3,3.32,55,55,0,0,1-27.64,9.87,59.35,59.35,0,0,1-32.05-6.49Z"/>
      </g>
    </g>
    <g id="bolso">
      <g>
        <path class="cls-26" d="M359.31,599.94,163.15,389.6c9.9-8.15,13.35-9.07,14.57-8.2.18.13.52.44,1.53,1.25,0,0,1.61,1.29,3.39,2.56a103.44,103.44,0,0,0,12.71,7.39,148.21,148.21,0,0,0,20.86,8.06Q300,494.48,383.74,588.3Z"/>
        <path class="cls-26" d="M353.49,596.45l-4.1,69.07a22.18,22.18,0,0,0,19.92,23.39l83.27,8.39a22.18,22.18,0,0,0,24.25-19.39l8-65.74a22.19,22.19,0,0,0-19.07-24.67L378.6,575.77A22.19,22.19,0,0,0,353.49,596.45Z"/>
        <path class="cls-26" d="M353.49,596.45l16.89,48.43a10.89,10.89,0,0,0,9.25,7.26L446,658.37a15.14,15.14,0,0,0,14.25-7l24.59-39.18"/>
      </g>
    </g>
    <g id="cejaDER">
      <path class="cls-33" d="M321.54,193.81a9,9,0,0,1-11-6.55,21.48,21.48,0,0,1-.48-6.94,21.93,21.93,0,0,1,1.56-6.29,9,9,0,0,1,6.53-5.37,90.07,90.07,0,0,1,23.11-1.57c9,.56,24.36,1.5,37.27,12,9.05,7.35,17.33,19.74,14.12,24.53-2.67,4-13.42,2.91-20.47-.36-4.65-2.15-5.64-4.32-12-7.23a58.64,58.64,0,0,0-11.83-3.64C338.36,190.46,328.28,192.1,321.54,193.81Z"/>
    </g>
    <g id="cejaIZQ">
      <path class="cls-33" d="M260.19,193.81a9,9,0,0,0,11-6.55A21.42,21.42,0,0,0,270.08,174a8.92,8.92,0,0,0-6.52-5.37,90.12,90.12,0,0,0-23.12-1.57c-9,.56-24.36,1.5-37.27,12-9,7.35-17.32,19.74-14.11,24.53,2.66,4,13.42,2.91,20.47-.36,4.65-2.15,5.63-4.32,12-7.23a58.41,58.41,0,0,1,11.82-3.64C243.37,190.46,253.45,192.1,260.19,193.81Z"/>
    </g>
    <g id="ojoDer_copia" data-name="ojoDer copia">
      <ellipse class="cls-5" cx="351.68" cy="240.73" rx="26.87" ry="32.12"/>
    </g>
    <g id="ojoDer">
      <ellipse class="cls-16" cx="351.68" cy="240.73" rx="26.87" ry="32.12"/>
    </g>
    <g id="ojoIZQ_copia" data-name="ojoIZQ copia">
      <ellipse class="cls-34" cx="237.33" cy="243.46" rx="26.87" ry="32.12"/>
    </g>
    <g id="ojoIZQ">
      <ellipse class="cls-16" cx="237.33" cy="243.46" rx="26.87" ry="32.12"/>
    </g>
    <g id="irisDER">
      <g>
        <ellipse class="cls-35" cx="348.13" cy="244.61" rx="15.69" ry="18.75"/>
        <ellipse class="cls-36" cx="354.21" cy="236.32" rx="5.11" ry="6.1"/>
      </g>
    </g>
    <g id="irisIZQ">
      <g>
        <ellipse class="cls-37" cx="240.86" cy="244.61" rx="15.91" ry="19.01"/>
        <ellipse class="cls-36" cx="245.97" cy="235.52" rx="5.11" ry="6.1"/>
      </g>
    </g>
    <g id="nariz">
      <g>
        <path class="cls-33" d="M266.13,292.19,212,297.13c-2,.57-11.27,3.47-16,12.7-.31.61-7.5,15.15.94,23.06,4.84,4.54,13,5.19,20.24,1.65l17.5-7.76c1.62,1.54,12.44,11.51,28.14,9.88a35.51,35.51,0,0,0,20.83-9.88c.84,1,10,11.59,24.35,10.35,12-1,18.88-9.61,20-11.06l22.35,8.23c8.94,2.66,17.9,1.14,22.12-4.23,6.47-8.23-1.1-21.78-6.82-28-10.59-11.53-26.39-10.44-28.83-10.24l-39.18.36Z"/>
        <path class="cls-38" d="M309,260.55a41.71,41.71,0,0,0-57.73,0A31.89,31.89,0,0,0,257,305a56.28,56.28,0,0,0,29.57,10.64,55.71,55.71,0,0,0,29.82-6.86c5.87-3.08,11.93-6.39,13.48-12.77,1.26-5.16-.93-10.23-1.42-11.36a21.15,21.15,0,0,0-6.15-8.05"/>
      </g>
    </g>
  </g>
</svg>
